<svg xmlns="http://www.w3.org/2000/svg" width="83.919" height="83.919" viewBox="0 0 83.919 83.919">
  <g id="outline" transform="translate(-16 -16.001)">
    <path id="Path_85" data-name="Path 85" d="M18.68,64.272a50.48,50.48,0,0,0,25.912,15.4l4.5,1.075-2.394.2a28.288,28.288,0,0,0-17.682,8.183L26.2,91.937a1.4,1.4,0,0,0,.988,2.388h5.665a28.143,28.143,0,0,0,15.977-4.95l7.73-5.3V98.521a1.4,1.4,0,1,0,2.8,0V84.077l7.73,5.3a28.143,28.143,0,0,0,15.977,4.95H88.73a1.4,1.4,0,0,0,.989-2.388L86.9,89.123a28.288,28.288,0,0,0-17.682-8.183l-2.394-.2,4.5-1.075a50.48,50.48,0,0,0,25.911-15.4l2.32-2.578a1.4,1.4,0,0,0-1.333-2.3L89.793,61.2a51.008,51.008,0,0,0-20.029,9.19l1.469-1.633a61.433,61.433,0,0,0,15.392-34.42,1.4,1.4,0,0,0-2.238-1.264l-1.1.836A60.857,60.857,0,0,0,63.194,60.767l.955-5.254a64.37,64.37,0,0,0-4.911-38.682l-.009-.02a1.4,1.4,0,0,0-2.538,0l-.01.022a64.368,64.368,0,0,0-4.91,38.679l.955,5.254A60.857,60.857,0,0,0,32.632,33.907l-1.1-.836A1.4,1.4,0,0,0,29.3,34.335l.009.077A61.19,61.19,0,0,0,44.635,68.7l1.521,1.691A51.005,51.005,0,0,0,26.127,61.2L17.692,59.39a1.4,1.4,0,0,0-1.333,2.3Zm28.57,22.8a25.357,25.357,0,0,1-14.4,4.46H30.566l.428-.428a25.49,25.49,0,0,1,15.932-7.373l5.9-.482Zm21.744-3.341A25.49,25.49,0,0,1,84.926,91.1l.428.428H83.066a25.357,25.357,0,0,1-14.4-4.46l-5.577-3.823Zm1.843-10.635a48.173,48.173,0,0,1,19.542-9.16l4.2-.9a47.684,47.684,0,0,1-23.9,13.917l-6.831,1.631ZM64.743,64.8A58.085,58.085,0,0,1,83.377,37.4,58.643,58.643,0,0,1,69.152,66.885l-7.876,8.758ZM57.96,20.929A61.545,61.545,0,0,1,61.4,55.012L57.96,73.919,54.522,55.012A61.544,61.544,0,0,1,57.96,20.929ZM32.536,37.394A58.085,58.085,0,0,1,51.176,64.8l3.467,10.841-7.928-8.816A58.01,58.01,0,0,1,32.536,37.394Zm-7,26.539a48.172,48.172,0,0,1,19.542,9.16l6.989,5.487-6.831-1.631a47.684,47.684,0,0,1-23.9-13.917Z"/>
  </g>
</svg>
