<svg id="Edit" xmlns="http://www.w3.org/2000/svg" width="141.544" height="141.544" viewBox="0 0 141.544 141.544">
  <g id="edit-2" data-name="edit">
    <path id="Path_5" data-name="Path 5" d="M2,35.619A14.055,14.055,0,0,0,16.014,49.633H34.233L2,17.4Z" transform="translate(-2 91.911)"/>
    <path id="Path_6" data-name="Path 6" d="M60.646,28.427,38.223,6A13.547,13.547,0,0,0,18.6,6l-1.4,1.4a6.774,6.774,0,0,0,0,9.81L49.435,49.448a6.774,6.774,0,0,0,9.81,0l1.4-1.4A13.547,13.547,0,0,0,60.646,28.427Z" transform="translate(76.693 -1.8)"/>
    <path id="Path_7" data-name="Path 7" d="M79.409,7.2a6.774,6.774,0,0,0-9.81,0L5.834,70.967c-3.5,3.5-3.5,7.708-.7,10.511L37.366,113.71a6.774,6.774,0,0,0,9.81,0l63.765-63.765a6.774,6.774,0,0,0,0-9.81Z" transform="translate(4.677 18.024)"/>
  </g>
</svg>
