<svg id="Leo" xmlns="http://www.w3.org/2000/svg" width="103.562" height="88.999" viewBox="0 0 103.562 88.999">
  <path id="iconfinder_Artboard_5_1737209" d="M29.161,99.827a21.769,21.769,0,0,0,21.4-22.019V47.688a7.639,7.639,0,0,1,7.3-7.916,7.639,7.639,0,0,1,7.3,7.916V89.259a23.128,23.128,0,1,0,46.242,0,7.916,7.916,0,0,0-15.832,0,7.309,7.309,0,1,1-14.578,0V47.688A23.471,23.471,0,0,0,57.856,23.94,23.471,23.471,0,0,0,34.728,47.688V56.58a20.819,20.819,0,0,0-5.62-.792,22.033,22.033,0,0,0,0,44.039Zm0-28.207a6.214,6.214,0,0,1,0,12.375,6.214,6.214,0,0,1,0-12.375Z" transform="translate(-7.838 -23.94)"/>
</svg>
