<svg xmlns="http://www.w3.org/2000/svg" width="100.844" height="141.181" viewBox="0 0 100.844 141.181">
  <g id="Layer_10" data-name="Layer 10" transform="translate(-6 -2)">
    <path id="Path_15" data-name="Path 15" d="M56.422,2A50.422,50.422,0,0,0,6,52.422c0,25.967,41.648,82.389,46.388,88.742a5.042,5.042,0,0,0,8.067,0c4.74-6.353,46.388-62.775,46.388-88.742A50.422,50.422,0,0,0,56.422,2Zm0,73.944c-12.563-5.025-21.134-5.1-21.134-22.39,0-22.278,2.89-20.3,25.168-20.3s14.817,4.655,14.817,26.933C75.273,77.486,69.321,68.775,56.422,75.944Z" transform="translate(0)"/>
    <path id="Path_16" data-name="Path 16" d="M36.211,7A25.211,25.211,0,1,0,61.422,32.211,25.211,25.211,0,0,0,36.211,7Zm0,40.337A15.127,15.127,0,1,1,51.337,32.211,15.127,15.127,0,0,1,36.211,47.337Z" transform="translate(20.211 20.211)"/>
  </g>
</svg>
