<?xml version="1.0" encoding="utf-8"?>
<!-- Generator: Adobe Illustrator 24.1.0, SVG Export Plug-In . SVG Version: 6.00 Build 0)  -->
<svg version="1.1" id="Layer_1" xmlns="http://www.w3.org/2000/svg" xmlns:xlink="http://www.w3.org/1999/xlink" x="0px" y="0px"
	 viewBox="0 0 210.2 217" style="enable-background:new 0 0 210.2 217;" xml:space="preserve">
<style type="text/css">
	.st0{display:none;}
	.st1{display:inline;fill:none;stroke:#000000;stroke-miterlimit:10;}
	.st2{display:inline;fill:#9CF5FF;}
	.st3{display:inline;fill:#05E6FF;}
	.st4{display:inline;fill:#C1F9FF;}
	.st5{display:inline;fill:#63EFFF;}
	.st6{display:inline;fill:#00A3AF;}
	.st7{display:inline;fill:#50C0C8;}
	.st8{display:inline;fill:#7DD0D6;}
	.st9{display:inline;fill:#95F4FF;}
	.st10{display:inline;fill:#77F1FF;}
	.st11{display:inline;fill:#99F5FF;}
	.st12{display:inline;fill:#35FFFC;}
	.st13{display:inline;fill:#7DF2FF;}
	.st14{display:inline;fill:#A4DEE2;}
	.st15{display:inline;fill:#1FAEB9;}
	.st16{display:none;fill:#23B0BA;}
	.st17{display:inline;}
	.st18{display:inline;fill:#A7DFE4;}
	.st19{display:inline;fill:#4FBFC8;}
	.st20{display:inline;fill:#2FB4BE;}
	.st21{display:inline;fill:#3EA0A7;}
	.st22{display:inline;fill:#70B9BE;}
	.st23{display:inline;fill:#73CCD3;}
	.st24{display:inline;fill:#52AAB1;}
	.st25{display:inline;fill:#1F757A;}
	.st26{display:inline;fill:#379DA4;}
	.st27{display:inline;fill:#368388;}
	.st28{display:inline;fill:#21929A;}
	.st29{display:inline;fill:#2E98A0;}
	.st30{display:inline;fill:#3099A1;}
	.st31{display:inline;fill:#3DB9C2;}
	.st32{display:inline;fill:#A3DEE2;}
	.st33{display:inline;fill:#5DAFB5;}
	.st34{display:inline;fill:#4B9195;}
	.st35{display:inline;fill:#539599;}
	.st36{display:inline;fill:#E6F6F7;}
	.st37{display:inline;fill:#29B2BC;}
	.st38{display:inline;fill:#DCF2F4;}
	.st39{display:inline;fill:#C6EAED;}
	.st40{display:inline;fill:#78BCC2;}
	.st41{display:inline;fill:#45A3AB;}
	.st42{display:inline;fill:#16ABB6;}
	.st43{display:inline;fill:#AFE2E6;}
	.st44{fill:#C1F9FF;}
	.st45{fill:#05E6FF;}
	.st46{fill:#9CF5FF;}
	.st47{fill:#50C0C8;}
	.st48{fill:#00A3AF;}
	.st49{fill:none;}
	.st50{fill:#63EFFF;}
	.st51{fill:#95F4FF;}
	.st52{fill:#7DD0D6;}
	.st53{font-family:'Special-Valentine';}
	.st54{font-size:98px;}
</style>
<g class="st0">
	<polygon class="st1" points="-181.5,340.6 -205,339.3 -222.4,349.5 -239.8,339.3 -263.3,340.6 -278.1,356.8 -278.1,380.5 
		-273.3,394.3 -254.9,422.3 -222.4,449 -189.9,422.3 -171.5,394.3 -166.7,380.5 -166.7,356.8 	"/>
	<polygon class="st1" points="-201,361.9 -221.4,376.2 -241.8,361.9 -253.1,366.8 -253.1,384 -236.1,409.1 -221.4,420.4 
		-206.7,409.1 -189.7,384 -189.7,366.8 	"/>
	<polyline class="st1" points="-221.4,376.2 -222.4,349.5 -241.8,361.9 	"/>
	<polygon class="st1" points="-201,361.9 -205,339.3 -186.9,354.1 	"/>
	<polyline class="st1" points="-181.5,340.6 -186.9,354.1 -189.7,366.8 -179.1,376.2 -166.7,380.5 	"/>
	<polyline class="st1" points="-202.9,433 -212.3,426.1 -189.9,422.3 -189.7,384 -179.1,376.2 -166.7,356.8 -186.9,354.1 	"/>
	<polyline class="st1" points="-212.3,426.1 -221.4,420.4 -232,426.1 -239.8,433 	"/>
	<polyline class="st1" points="-179.1,376.2 -171.5,394.3 -206.7,409.1 -212.3,426.1 -222.4,449 -232,426.1 -236.1,409.1 
		-273.3,394.3 -266,375.1 	"/>
	<polyline class="st1" points="-263.3,340.6 -258.9,354.1 -241.8,361.9 -239.8,339.3 -258.9,354.1 -278.1,356.8 -266,375.1 
		-253.1,384 -254.9,401.6 -254.9,422.3 -232,426.1 	"/>
	<polyline class="st1" points="-258.9,354.1 -253.1,366.8 -266,375.1 -278.1,380.5 	"/>
	<line class="st1" x1="-201" y1="361.9" x2="-222.4" y2="349.5"/>
</g>
<g class="st0">
	<polygon class="st2" points="-184,64.6 -164.5,55.3 -193.9,31.4 -198.4,52.9 	"/>
	<polygon class="st3" points="-198.4,52.9 -193.9,31.4 -222,38.9 -222.1,59.2 	"/>
	<polygon class="st4" points="-222.1,59.2 -222,38.9 -248.5,31.4 -244,53 	"/>
	<polygon class="st5" points="-221.8,121 -208,134.8 -164.5,93.5 -184,85.1 	"/>
	<polygon class="st6" points="-184,64.6 -184,85.1 -164.5,93.5 -164.5,55.3 	"/>
	<polygon class="st7" points="-244,53 -248.5,31.4 -277.8,55.3 -258.3,64.6 	"/>
	<polygon class="st8" points="-258.3,85.3 -277.8,93.5 -222,148.1 -208,134.8 -221.8,121 	"/>
	<polygon class="st9" points="-258.3,64.6 -277.8,55.3 -277.8,93.5 -258.3,85.3 	"/>
	<polygon class="st6" points="-244,53 -258.3,64.6 -258.3,85.3 -221.8,121 -222.1,59.2 	"/>
	<polygon class="st4" points="-222.1,59.2 -221.8,121 -184,85.1 -184,64.6 -198.4,52.9 	"/>
</g>
<g class="st0">
	<polygon class="st10" points="132.7,33.9 114.1,54.9 150,54.9 	"/>
	<polygon class="st7" points="172.9,82.6 150,54.9 132.7,82.6 	"/>
	<polygon class="st11" points="95.5,33.9 78.2,54.9 114.1,54.9 	"/>
	<polygon class="st4" points="132.7,82.6 114.1,54.9 95.5,82.6 	"/>
	<polygon class="st3" points="95.5,82.6 114.1,141.7 132.7,82.6 	"/>
	<polygon class="st4" points="55.3,82.6 114.1,141.7 95.5,82.6 	"/>
	<polygon class="st6" points="132.7,82.6 114.1,141.7 172.9,82.6 	"/>
	<polygon class="st3" points="78.2,54.9 55.3,82.6 95.5,82.6 	"/>
	<polygon class="st12" points="150.1,54.9 150,54.9 150,54.9 	"/>
	<polygon class="st12" points="78.2,54.9 78.2,54.9 78.2,54.9 	"/>
	<polygon class="st2" points="150,54.9 150,54.9 114.1,54.9 132.7,82.6 	"/>
	<polygon class="st13" points="114.1,54.9 78.2,54.9 78.2,54.9 95.5,82.6 	"/>
</g>
<g class="st0">
	<polygon class="st14" points="-152.9,208.1 -184.6,208.1 -200.3,228.8 -216.3,208.1 -247.8,208.1 -265.3,236.2 -200.3,304.9 
		-135.4,236.2 	"/>
	<polygon class="st15" points="-173.9,242.4 -148.9,236.2 -251.8,236.2 -226.8,242.4 -226.8,242.4 -200.3,276.4 -191.4,285.3 
		-196.7,271.7 -173.9,242.4 	"/>
</g>
<path class="st16" d="M-4.3,208.1H-36l-15.8,20.7l-16-20.7h-31.5l-17.5,28.2l65,68.7l65-68.7L-4.3,208.1z M-42.8,285.3l-9-9
	l-26.5-34l-25-6.2h103l-25,6.2l-22.9,29.3L-42.8,285.3z"/>
<g class="st0">
	<rect x="382.1" y="479.8" class="st17" width="196.4" height="126.1"/>
	<path class="st18" d="M523.3,498.9h-28.8l-14.3,18.8l-14.5-18.8h-28.5l-15.9,25.5l58.9,62.2l58.9-62.2L523.3,498.9z M488.4,569
		l-8.1-8.1l-24-30.8l-22.6-5.6h93.3l-22.6,5.6l-20.7,26.6L488.4,569z"/>
</g>
<g class="st0">
	<path class="st6" d="M174,203.4L174,203.4L174,203.4z"/>
	<polygon class="st6" points="177.1,285.8 177.1,285.8 177.1,285.8 	"/>
	<path class="st6" d="M192.8,239.7L192.8,239.7C192.8,239.7,192.8,239.7,192.8,239.7L192.8,239.7z"/>
	<path class="st6" d="M132.1,218.8v-6.1c-4.2-5.9-10.8-9.9-18.1-11.6l-1.8,9.9L132.1,218.8z"/>
	<path class="st19" d="M114,201.1c-7.8-1.9-16.4-1.2-23.9,2.3l22,7.6L114,201.1z"/>
	<path class="st20" d="M174,203.4c-7.4-3.5-16.1-4.2-23.9-2.3l1.8,9.9L174,203.4z"/>
	<path class="st21" d="M192.8,239.7c0-1.5,0-3-0.1-4.6c-0.2-6.2-1.5-11.6-3.5-16.1l-11.8,9.1L192.8,239.7z"/>
	<path class="st22" d="M189.3,219c-3.4-7.5-8.9-12.6-15.2-15.6l3.5,24.7L189.3,219z"/>
	<polygon class="st14" points="158.3,227 132.1,218.8 105.8,227 94.8,247.1 105.2,274.9 132.1,290.9 158.9,274.9 169.3,247.1 	"/>
	<path class="st23" d="M152,211l-1.8-9.9c-7.3,1.8-13.9,5.7-18.1,11.6v6.1L152,211z"/>
	<polygon class="st24" points="132.1,290.9 115.5,300.9 132.1,321.5 148.6,300.9 	"/>
	<path class="st25" d="M132.1,321.5c7.2-3.3,14.8-7.7,22.1-13.1l-5.6-7.5L132.1,321.5z"/>
	<path class="st26" d="M188.4,264.5c2.7-7.6,4.3-15.9,4.4-24.8l-15.8,21.1L188.4,264.5z"/>
	<path class="st27" d="M154.2,308.5c8.4-6.2,16.3-13.8,22.8-22.7L148.6,301L154.2,308.5z"/>
	<path class="st28" d="M109.9,308.4c7.3,5.4,14.9,9.8,22.1,13.1l-16.6-20.5L109.9,308.4z"/>
	<path class="st29" d="M177.1,260.8v25c4.7-6.4,8.6-13.5,11.3-21.3L177.1,260.8z"/>
	<path class="st30" d="M87.1,285.8c6.5,8.9,14.5,16.5,22.9,22.7l5.6-7.5L87.1,285.8z"/>
	<polygon class="st31" points="177.5,228.1 158.3,227 169.3,247.1 	"/>
	<polygon class="st32" points="152,211 132.1,218.8 158.3,227 	"/>
	<polygon class="st33" points="148.6,300.9 158.9,274.9 132.1,290.9 	"/>
	<polygon class="st34" points="158.9,274.9 148.6,300.9 177.1,285.8 177.1,285.8 177.1,260.8 	"/>
	<polygon class="st24" points="158.9,274.9 177.1,260.8 169.3,247.1 	"/>
	<polygon class="st6" points="158.3,227 177.5,228.1 174,203.4 174,203.4 152,211 	"/>
	<path class="st35" d="M169.3,247.1l7.8,13.7l15.8-21.1c0,0,0,0,0,0l-15.3-11.5L169.3,247.1z"/>
	<polygon class="st6" points="87.1,285.8 87.1,285.8 87.1,285.8 	"/>
	<path class="st6" d="M71.3,239.7L71.3,239.7C71.3,239.7,71.3,239.7,71.3,239.7L71.3,239.7z"/>
	<path class="st6" d="M90.1,203.4L90.1,203.4L90.1,203.4z"/>
	<polygon class="st36" points="86.6,228.1 94.8,247.1 105.8,227 	"/>
	<path class="st37" d="M94.8,247.1l-8.2-19l-15.3,11.5c0,0,0,0,0,0l15.8,21.1L94.8,247.1z"/>
	<polygon class="st24" points="105.2,274.9 87.1,260.8 87.1,285.8 87.1,285.8 115.5,300.9 	"/>
	<polygon class="st38" points="105.8,227 112.1,211 90.1,203.4 90.1,203.4 86.6,228.1 	"/>
	<polygon class="st39" points="112.1,211 105.8,227 132.1,218.8 	"/>
	<polygon class="st6" points="87.1,260.8 105.2,274.9 94.8,247.1 	"/>
	<polygon class="st6" points="115.5,300.9 132.1,290.9 105.2,274.9 	"/>
	<path class="st40" d="M71.3,239.7c0.1,8.4,1.6,16.2,4,23.4l11.8-2.3L71.3,239.7z"/>
	<path class="st41" d="M87.1,260.8l-11.8,2.3c2.8,8.3,6.9,15.9,11.8,22.7V260.8z"/>
	<path class="st42" d="M71.4,235.1c-0.1,1.5-0.1,3.1-0.1,4.6l15.3-11.5L74.8,219C72.8,223.5,71.6,228.8,71.4,235.1z"/>
	<path class="st43" d="M74.8,219l11.8,9.1l3.5-24.7C83.7,206.4,78.2,211.5,74.8,219z"/>
</g>
<g>
	<path class="st44" d="M103.4,40.4L103.4,40.4l0.2-19.9l0,0C97,14,88,10,78,10c-2.3,0-4.4,0.2-6.6,0.6l10.7,24L103.4,40.4z"/>
	<path class="st45" d="M129.2,10c-10,0-19,4-25.6,10.6l0,0l-0.2,19.9l21.4-5.9l6.5-24.4C130.7,10,129.9,10,129.2,10z"/>
	<path class="st46" d="M131.4,10.1l-6.5,24.4l13.5,11l26.2-6.6C161.4,23.1,147.9,11.1,131.4,10.1z"/>
	<path class="st47" d="M82.2,34.6l-10.7-24C57,13.3,45.5,24.5,42.6,38.9l26.2,6.6L82.2,34.6z"/>
	<path class="st48" d="M165.3,46.2c0-2.5-0.3-4.9-0.7-7.3l-26.2,6.6v19.3l14.7,8.6l1.7-1.7C161.3,65.2,165.3,56.1,165.3,46.2z"/>
	<polygon class="st48" points="103.4,40.4 103.4,40.4 82.2,34.6 68.8,45.5 68.8,64.9 68.8,64.9 69,64.8 68.8,64.9 103,98.4 	"/>
	<polygon class="st44" points="103.4,40.4 103,98.4 138.4,64.8 138.4,45.5 124.9,34.5 	"/>
	<line class="st49" x1="68.8" y1="64.9" x2="54.1" y2="73.4"/>
	<polygon class="st50" points="138.4,64.8 103,98.4 115.5,111 153.1,73.4 	"/>
	<path class="st51" d="M68.8,64.9l-14.7,8.5L68.8,64.9V45.5l-26.2-6.6c-0.5,2.4-0.7,4.8-0.7,7.3c0,10,4,19,10.6,25.6l1.7,1.7
		L68.8,64.9L68.8,64.9z"/>
	<polygon class="st52" points="115.5,111 103,98.4 68.8,64.9 54.1,73.4 103.6,122.9 	"/>
</g>
<text transform="matrix(1 0 0 1 -293.0158 412.5367)" class="st0"><tspan x="0" y="0" class="st17" style="font-family:'Helvetica-BoldOblique'; font-size:44px; letter-spacing:8;">1</tspan><tspan x="33.3" y="0" class="st17" style="font-family:'Helvetica-BoldOblique'; font-size:44px;">	</tspan><tspan x="44.8" y="0" class="st17" style="font-family:'Helvetica-BoldOblique'; font-size:44px; letter-spacing:14;">	</tspan><tspan x="72" y="0" class="st17" style="font-family:'Helvetica-BoldOblique'; font-size:44px; letter-spacing:8;">2</tspan><tspan x="105.3" y="0" class="st17" style="font-family:'Helvetica-BoldOblique'; font-size:44px; letter-spacing:-9;">	</tspan><tspan x="108" y="0" class="st17" style="font-family:'Helvetica-BoldOblique'; font-size:44px; letter-spacing:23;">	</tspan><tspan x="144" y="0" class="st17" style="font-family:'Helvetica-BoldOblique'; font-size:44px; letter-spacing:8;">3</tspan><tspan x="177.3" y="0" class="st17" style="font-family:'Helvetica-BoldOblique'; font-size:44px; letter-spacing:-9;">	</tspan><tspan x="180" y="0" class="st17" style="font-family:'Helvetica-BoldOblique'; font-size:44px; letter-spacing:23;">	</tspan><tspan x="216" y="0" class="st17" style="font-family:'Helvetica-BoldOblique'; font-size:44px; letter-spacing:8;">4</tspan><tspan x="249.3" y="0" class="st17" style="font-family:'Helvetica-BoldOblique'; font-size:44px; letter-spacing:-9;">	</tspan><tspan x="252" y="0" class="st17" style="font-family:'Helvetica-BoldOblique'; font-size:44px; letter-spacing:23;">	</tspan><tspan x="288" y="0" class="st17" style="font-family:'Helvetica-BoldOblique'; font-size:44px; letter-spacing:8;">5</tspan><tspan x="321.3" y="0" class="st17" style="font-family:'Helvetica-BoldOblique'; font-size:44px; letter-spacing:-9;">	</tspan><tspan x="324" y="0" class="st17" style="font-family:'Helvetica-BoldOblique'; font-size:44px; letter-spacing:23;">	</tspan><tspan x="360" y="0" class="st17" style="font-family:'Helvetica-BoldOblique'; font-size:44px; letter-spacing:8;"> 6</tspan><tspan x="414.3" y="0" class="st17" style="font-family:'Helvetica-BoldOblique'; font-size:44px; letter-spacing:5;">	</tspan><tspan x="432" y="0" class="st17" style="font-family:'Helvetica-BoldOblique'; font-size:44px; letter-spacing:8;"> 7</tspan></text>
<text transform="matrix(1 0 0 1 59.4255 152.1886)" class="st53 st54">Lustr</text>
</svg>
