<svg id="Pisces" xmlns="http://www.w3.org/2000/svg" width="65.661" height="92.013" viewBox="0 0 65.661 92.013">
  <path id="iconfinder_Artboard_3_1737216" d="M29.567,106.226a7.916,7.916,0,0,0,11.2,0,27.257,27.257,0,0,1,38.55,0A7.948,7.948,0,1,0,90.559,94.986a43.234,43.234,0,0,0-10.277-7.612,7.918,7.918,0,0,0,0-.937V37.622a42.944,42.944,0,0,0,10.211-7.56,7.92,7.92,0,0,0-11.2-11.2,27.3,27.3,0,0,1-38.55,0,7.916,7.916,0,0,0-11.175,11.2,42.944,42.944,0,0,0,10.211,7.56V86.437a7.916,7.916,0,0,0,0,.937,43.247,43.247,0,0,0-10.211,7.612,7.916,7.916,0,0,0,0,11.241Zm26.083-63.8a42.324,42.324,0,0,0,8.853,0V82.637a43.367,43.367,0,0,0-8.853,0Z" transform="translate(-27.225 -16.542)"/>
</svg>
