<svg id="Sagittarius" xmlns="http://www.w3.org/2000/svg" width="92.64" height="92.587" viewBox="0 0 92.64 92.587">
  <path id="iconfinder_Artboard_12_1737212" d="M26.8,81.307l-9.6,9.6a7.92,7.92,0,0,0,11.2,11.2l9.539-9.618,11.043,11.043a7.92,7.92,0,1,0,11.2-11.2L49.133,81.294,85.005,45.488l-3.879,18.47A7.919,7.919,0,1,0,96.615,67.27l9.328-44.54h0v-.2a7.915,7.915,0,0,0,.119-1.174c0-.106,0-.2,0-.3a7.916,7.916,0,0,0-.132-1.319c0-.079,0-.172,0-.251a7.916,7.916,0,0,0-.33-1.108l-.106-.277a7.916,7.916,0,0,0-.62-1.174l-.185-.264a7.072,7.072,0,0,0-1.992-1.992l-.277-.185a7.916,7.916,0,0,0-1.161-.607l-.29-.106a7.915,7.915,0,0,0-1.069-.317l-.29-.066a7.916,7.916,0,0,0-1.319-.119h-.33a7.916,7.916,0,0,0-1.174.119h-.2L52.036,22.677a7.919,7.919,0,0,0,3.246,15.5L73.752,34.3,37.932,70.106,26.942,59.09a7.92,7.92,0,1,0-11.2,11.2Z" transform="translate(-13.422 -13.27)"/>
</svg>
