<svg id="Settings" xmlns="http://www.w3.org/2000/svg" width="131.95" height="132.121" viewBox="0 0 131.95 132.121">
  <path id="iconfinder_icon-ios7-gear_211751" d="M188,116.456h-5.228a8.041,8.041,0,0,1-7.843-8.049,7.528,7.528,0,0,1,2.58-5.676l3.371-3.3a8.45,8.45,0,0,0,0-12l-7.671-7.6a8.728,8.728,0,0,0-12.039,0l-3.233,3.233a7.769,7.769,0,0,1-5.848,2.649,8.043,8.043,0,0,1-8.083-7.808V72.634A8.6,8.6,0,0,0,135.581,64H125.124a8.546,8.546,0,0,0-8.393,8.634v5.228a8.043,8.043,0,0,1-8.083,7.808,7.689,7.689,0,0,1-5.71-2.545l-3.337-3.3a8.475,8.475,0,0,0-6.02-2.408,8.685,8.685,0,0,0-6.02,2.408L79.823,87.39a8.47,8.47,0,0,0,0,11.97l3.233,3.233a7.787,7.787,0,0,1,2.683,5.813,8.019,8.019,0,0,1-7.843,8.049H72.668A8.525,8.525,0,0,0,64,124.815v10.457a8.548,8.548,0,0,0,8.668,8.359H77.9a8.041,8.041,0,0,1,7.843,8.049,7.787,7.787,0,0,1-2.683,5.813l-3.233,3.2a8.47,8.47,0,0,0,0,11.97l7.671,7.636a8.475,8.475,0,0,0,6.02,2.408,8.685,8.685,0,0,0,6.02-2.408l3.337-3.3a7.634,7.634,0,0,1,5.71-2.545,8.043,8.043,0,0,1,8.083,7.808v5.228a8.574,8.574,0,0,0,8.427,8.634h10.457a8.546,8.546,0,0,0,8.393-8.634v-5.228a7.99,7.99,0,0,1,13.931-5.16l3.233,3.233a8.728,8.728,0,0,0,12.039,0l7.671-7.636a8.512,8.512,0,0,0,0-12l-3.371-3.3a7.582,7.582,0,0,1-2.58-5.676,8.018,8.018,0,0,1,7.843-8.049h5.228c4.678,0,8.015-3.681,8.015-8.359V124.815A7.9,7.9,0,0,0,188,116.456Zm-30.167,13.587h0a27.518,27.518,0,1,1-55.036,0h0a27.518,27.518,0,0,1,55.036,0Z" transform="translate(-64 -64)"/>
</svg>
