<svg id="Cancer" xmlns="http://www.w3.org/2000/svg" width="96.274" height="100.589" viewBox="0 0 96.274 100.589">
  <path id="Path_11" data-name="Path 11" d="M33.865,70.119A21.544,21.544,0,0,0,48.377,32.624,45.318,45.318,0,0,1,95.015,43.469a7.92,7.92,0,0,0,11.2-11.2,61.058,61.058,0,0,0-85.755-.58,21.558,21.558,0,0,0,13.4,38.432Zm0-27.323a5.739,5.739,0,1,1-5.739,5.739A5.739,5.739,0,0,1,33.865,42.8Z" transform="translate(-12.283 -14.387)"/>
  <path id="Path_12" data-name="Path 12" d="M57.819,104.136a60.688,60.688,0,0,0,42.574-17.309,21.584,21.584,0,1,0-27.943-.95A45.318,45.318,0,0,1,25.812,75.045a7.92,7.92,0,1,0-11.2,11.2,60.688,60.688,0,0,0,43.208,17.89ZM86.976,64.227a5.739,5.739,0,1,1-5.739,5.739A5.739,5.739,0,0,1,86.976,64.227Z" transform="translate(-12.292 -3.547)"/>
</svg>
