<svg id="Libra" xmlns="http://www.w3.org/2000/svg" width="89.938" height="89.357" viewBox="0 0 89.938 89.357">
  <path id="Path_13" data-name="Path 13" d="M19.746,95.222H93.852a7.916,7.916,0,0,0,0-15.832H19.746a7.916,7.916,0,0,0,0,15.832Z" transform="translate(-11.83 -5.865)"/>
  <path id="Path_14" data-name="Path 14" d="M19.746,85.945h17.8a7.916,7.916,0,0,0,5.594-13.51,19.315,19.315,0,1,1,27.31,0,7.916,7.916,0,0,0,5.594,13.51H93.852a7.916,7.916,0,0,0,0-15.832h-3.8a35.133,35.133,0,1,0-66.52,0H19.746a7.916,7.916,0,0,0,0,15.832Z" transform="translate(-11.83 -23.66)"/>
</svg>
