<svg xmlns="http://www.w3.org/2000/svg" width="83.956" height="83.954" viewBox="0 0 83.956 83.954">
  <g id="milk" transform="translate(0 -0.009)">
    <g id="Group_30" data-name="Group 30" transform="translate(0 0.009)">
      <g id="Group_29" data-name="Group 29">
        <path id="Path_27" data-name="Path 27" d="M82.07,1.9a6.45,6.45,0,0,0-9.121,0L71.288,3.56C68.529,6.318,66.757,6.7,65.252,6.7h0c-.549,0-1.1-.055-1.678-.113A19.33,19.33,0,0,0,61.62,6.46a9,9,0,0,0-5.932,2.247,6.874,6.874,0,0,0-10.926,5.555,11.1,11.1,0,0,0-2.842-.37,10.9,10.9,0,0,0-7.759,3.2L3.208,48.048a10.985,10.985,0,0,0,0,15.517l17.2,17.2a11,11,0,0,0,15.517,0L66.874,49.807a10.9,10.9,0,0,0,3.2-7.759,11.1,11.1,0,0,0-.37-2.842A6.883,6.883,0,0,0,75.26,28.278,9.4,9.4,0,0,0,77.382,20.4c-.228-2.288-.425-4.263,3.026-7.714l1.662-1.662A6.458,6.458,0,0,0,82.07,1.9ZM65.489,45.949l-6.88-6.88a1.749,1.749,0,1,0-2.474,2.473l7.027,7.028L57.9,53.835l-7.027-7.028A1.749,1.749,0,0,0,48.4,49.281l7.028,7.028L50.16,61.573l-7.027-7.028a1.749,1.749,0,0,0-2.474,2.474l7.027,7.027-5.264,5.264-7.028-7.028a1.749,1.749,0,0,0-2.474,2.474l7.028,7.028-5.264,5.264L26.7,69.064a1.749,1.749,0,1,0-2.474,2.474l7.837,7.837a7.514,7.514,0,0,1-9.186-1.089l-17.2-17.2a7.482,7.482,0,0,1,0-10.569L35.4,20.805l4.552,4.551a1.749,1.749,0,1,0,2.473-2.474l-4.4-4.4A7.513,7.513,0,0,1,47.2,19.568l17.2,17.2a7.512,7.512,0,0,1,1.089,9.186Zm6.6-11.226a3.4,3.4,0,0,1-4.783,0L49.244,16.66a3.383,3.383,0,0,1,4.784-4.784l.42.42,0,0L71.667,29.516l0,0,.42.42a3.4,3.4,0,0,1,0,4.784ZM79.6,8.545l-1.662,1.662c-4.623,4.623-4.3,7.9-4.033,10.535.175,1.758.311,3.117-1.077,4.982L58.246,11.147a5.25,5.25,0,0,1,3.374-1.189c.512,0,1.044.053,1.607.109a19.891,19.891,0,0,0,2.024.13h0c3.006,0,5.63-1.284,8.51-4.164l1.662-1.662A2.951,2.951,0,1,1,79.6,8.545Z" transform="translate(0 -0.009)"/>
        <path id="Path_28" data-name="Path 28" d="M125.752,396.679a1.749,1.749,0,0,0-2.474,2.474l.029.03a1.749,1.749,0,0,0,2.474-2.474Z" transform="translate(-102.635 -331.206)"/>
        <path id="Path_29" data-name="Path 29" d="M265.15,158.554a1.749,1.749,0,1,0-2.455,2.492l.029.029a1.749,1.749,0,1,0,2.456-2.492Z" transform="translate(-219.182 -132.135)"/>
      </g>
    </g>
  </g>
</svg>
