<svg xmlns="http://www.w3.org/2000/svg" width="70.282" height="72.545" viewBox="0 0 70.282 72.545">
  <g id="placard" transform="translate(-0.016)">
    <path id="Path_37" data-name="Path 37" d="M313.231,292.3a1.132,1.132,0,0,1-1.133-1.133V283.6a1.133,1.133,0,0,1,2.267,0v7.569A1.132,1.132,0,0,1,313.231,292.3Zm0,0" transform="translate(-267.866 -242.445)"/>
    <path id="Path_38" data-name="Path 38" d="M265.262,292.281a1.132,1.132,0,0,1-1.133-1.133v-7.58a1.133,1.133,0,1,1,2.267,0v7.58A1.133,1.133,0,0,1,265.262,292.281Zm0,0" transform="translate(-226.694 -242.418)"/>
    <path id="Path_39" data-name="Path 39" d="M329.317,343.887a1.133,1.133,0,0,1,0-2.267,1.7,1.7,0,1,0,0-3.4,1.133,1.133,0,0,1,0-2.267,3.967,3.967,0,1,1,0,7.934Zm0,0" transform="translate(-281.673 -288.355)"/>
    <path id="Path_40" data-name="Path 40" d="M329.317,383.968a1.133,1.133,0,0,1,0-2.267,1.7,1.7,0,0,0,0-3.4,1.133,1.133,0,0,1,0-2.267,3.968,3.968,0,0,1,0,7.936Zm0,0" transform="translate(-281.673 -322.755)"/>
    <path id="Path_41" data-name="Path 41" d="M329.317,423.823a1.133,1.133,0,0,1,0-2.267,1.7,1.7,0,0,0,0-3.4,1.133,1.133,0,0,1,0-2.267,3.968,3.968,0,0,1,0,7.936Zm0,0" transform="translate(-281.673 -356.964)"/>
    <path id="Path_42" data-name="Path 42" d="M284.037,423.807a3.968,3.968,0,0,1,0-7.936,1.133,1.133,0,0,1,0,2.267,1.7,1.7,0,0,0,0,3.4,1.133,1.133,0,1,1,0,2.267Zm0,0" transform="translate(-240.376 -356.95)"/>
    <path id="Path_43" data-name="Path 43" d="M284.037,463.839a3.968,3.968,0,0,1,0-7.937,1.133,1.133,0,1,1,0,2.267,1.7,1.7,0,0,0,0,3.4,1.133,1.133,0,1,1,0,2.267Zm0,0" transform="translate(-240.376 -391.31)"/>
    <path id="Path_44" data-name="Path 44" d="M329.317,463.839a1.133,1.133,0,0,1,0-2.267,1.7,1.7,0,0,0,0-3.4,1.133,1.133,0,0,1,0-2.267,3.968,3.968,0,0,1,0,7.937Zm0,0" transform="translate(-281.673 -391.31)"/>
    <path id="Path_45" data-name="Path 45" d="M284.038,401.1a3.972,3.972,0,0,1-3.968-3.967,1.133,1.133,0,0,1,2.267,0,1.7,1.7,0,1,0,3.4,0,1.133,1.133,0,0,1,2.267,0A3.97,3.97,0,0,1,284.038,401.1Zm0,0" transform="translate(-240.376 -339.895)"/>
    <path id="Path_46" data-name="Path 46" d="M305.191,418.207l-3.981,0a1.133,1.133,0,0,1,0-2.267h0l3.979,0a1.133,1.133,0,0,1,0,2.267Zm0,0" transform="translate(-257.55 -357.007)"/>
    <path id="Path_47" data-name="Path 47" d="M305.185,458.191l-3.982,0a1.133,1.133,0,0,1,0-2.267h0l3.981,0a1.133,1.133,0,0,1,0,2.267Zm0,0" transform="translate(-257.543 -391.327)"/>
    <path id="Path_48" data-name="Path 48" d="M260.573,338.2h-11.35a1.133,1.133,0,1,1,0-2.267h11.35a1.133,1.133,0,1,1,0,2.267Zm0,0" transform="translate(-212.927 -288.342)"/>
    <path id="Path_49" data-name="Path 49" d="M260.571,498.3H249.223a1.133,1.133,0,1,1,0-2.267h11.348a1.133,1.133,0,0,1,0,2.267Zm0,0" transform="translate(-212.927 -425.753)"/>
    <path id="Path_50" data-name="Path 50" d="M321.172,346.67a1.132,1.132,0,0,1-1.133-1.133V337.02a1.133,1.133,0,1,1,2.267,0v8.517A1.132,1.132,0,0,1,321.172,346.67Zm0,0" transform="translate(-274.682 -288.298)"/>
    <path id="Path_51" data-name="Path 51" d="M260.62,378.22h-3.389a1.133,1.133,0,0,1,0-2.267h3.389a1.133,1.133,0,0,1,0,2.267Zm0,0" transform="translate(-219.8 -322.688)"/>
    <path id="Path_52" data-name="Path 52" d="M322.424,378.22h-1.138a1.133,1.133,0,0,1,0-2.267h1.138a1.133,1.133,0,1,1,0,2.267Zm0,0" transform="translate(-274.78 -322.688)"/>
    <path id="Path_53" data-name="Path 53" d="M281.149,381.06a1.132,1.132,0,0,1-1.133-1.133v-2.84a1.133,1.133,0,1,1,2.267,0v2.84A1.132,1.132,0,0,1,281.149,381.06Zm0,0" transform="translate(-240.33 -322.688)"/>
    <path id="Path_54" data-name="Path 54" d="M137.294,458.3a1.133,1.133,0,0,1,0-2.267l6.064,0a1.133,1.133,0,1,1,0,2.267Zm0,0" transform="translate(-116.856 -391.421)"/>
    <path id="Path_55" data-name="Path 55" d="M137.294,378.222a1.133,1.133,0,1,1,0-2.267l6.064,0a1.133,1.133,0,0,1,0,2.267Zm0,0" transform="translate(-116.856 -322.688)"/>
    <path id="Path_56" data-name="Path 56" d="M137.165,378.18a1.132,1.132,0,0,1-1.133-1.133V361.18a1.133,1.133,0,1,1,2.267,0v15.866A1.132,1.132,0,0,1,137.165,378.18Zm0,0" transform="translate(-116.745 -309.035)"/>
    <path id="Path_57" data-name="Path 57" d="M109.692,474.3h-4.535a1.133,1.133,0,0,1,0-2.267h4.535a1.133,1.133,0,0,1,0,2.267Zm0,0" transform="translate(-89.272 -405.154)"/>
    <path id="Path_58" data-name="Path 58" d="M109.692,362.314h-4.535a1.133,1.133,0,1,1,0-2.267h4.535a1.133,1.133,0,1,1,0,2.267Zm0,0" transform="translate(-89.272 -309.035)"/>
    <path id="Path_59" data-name="Path 59" d="M105.157,366.727a1.132,1.132,0,0,1-1.133-1.133V345.2a1.133,1.133,0,1,1,2.267,0v20.4A1.132,1.132,0,0,1,105.157,366.727Zm0,0" transform="translate(-89.272 -295.316)"/>
    <path id="Path_60" data-name="Path 60" d="M15.885,346.329H1.149a1.133,1.133,0,1,1,0-2.267H15.885a1.133,1.133,0,1,1,0,2.267Zm0,0" transform="translate(0 -295.316)"/>
    <path id="Path_61" data-name="Path 61" d="M15.885,490.3H1.149a1.133,1.133,0,0,1,0-2.267H15.885a1.133,1.133,0,0,1,0,2.267Zm0,0" transform="translate(0 -418.887)"/>
    <path id="Path_62" data-name="Path 62" d="M151.634,41.948h-54.4A1.132,1.132,0,0,1,96.1,40.815V1.133A1.132,1.132,0,0,1,97.231,0h54.4a1.132,1.132,0,0,1,1.133,1.133V40.815A1.132,1.132,0,0,1,151.634,41.948ZM98.365,39.682H150.5V2.267H98.365Zm0,0" transform="translate(-82.469)"/>
    <path id="Path_63" data-name="Path 63" d="M178.663,75.822a1.128,1.128,0,0,1-.527-.131l-1.576-.826-1.576.826a1.132,1.132,0,0,1-1.643-1.194l.3-1.754L172.369,71.5A1.132,1.132,0,0,1,173,69.569l1.759-.256.788-1.6a1.179,1.179,0,0,1,2.032,0l.788,1.6,1.759.256a1.133,1.133,0,0,1,.629,1.933l-1.274,1.242.263,1.535a1.121,1.121,0,0,1,.076.411,1.132,1.132,0,0,1-1.133,1.133A.14.14,0,0,1,178.663,75.822Zm-2.1-3.372a1.129,1.129,0,0,1,.527.13l.07.035-.013-.076a1.133,1.133,0,0,1,.325-1l.056-.055-.076-.012a1.13,1.13,0,0,1-.853-.62l-.035-.071-.035.071a1.131,1.131,0,0,1-.853.62l-.076.012.057.055a1.135,1.135,0,0,1,.325,1l-.014.076.07-.035A1.114,1.114,0,0,1,176.56,72.45Zm0,0" transform="translate(-147.641 -57.625)"/>
    <path id="Path_64" data-name="Path 64" d="M264.562,62.377a1.142,1.142,0,0,1-.528-.13l-2.276-1.2-2.276,1.2a1.134,1.134,0,0,1-1.645-1.2l.436-2.532-1.839-1.791a1.133,1.133,0,0,1,.627-1.934l2.543-.372,1.138-2.3a1.18,1.18,0,0,1,2.032,0l1.138,2.3,2.543.372a1.133,1.133,0,0,1,.627,1.934l-1.839,1.791.4,2.314a1.118,1.118,0,0,1,.076.41,1.132,1.132,0,0,1-1.133,1.133Zm-2.8-3.741a1.139,1.139,0,0,1,.528.13l.769.4-.147-.856a1.138,1.138,0,0,1,.327-1.005l.622-.605L263,56.578a1.136,1.136,0,0,1-.852-.619l-.385-.78-.386.78a1.136,1.136,0,0,1-.852.619l-.861.126.622.605a1.137,1.137,0,0,1,.327,1.005l-.147.856.769-.4A1.139,1.139,0,0,1,261.758,58.636Zm0,0" transform="translate(-219.795 -44.238)"/>
    <path id="Path_65" data-name="Path 65" d="M362.655,75.822a1.128,1.128,0,0,1-.527-.131l-1.576-.826-1.576.826a1.132,1.132,0,0,1-1.643-1.194l.3-1.754L356.361,71.5a1.132,1.132,0,0,1,.629-1.933l1.759-.256.788-1.6a1.179,1.179,0,0,1,2.032,0l.788,1.6,1.759.256a1.133,1.133,0,0,1,.629,1.933l-1.274,1.242.263,1.535a1.121,1.121,0,0,1,.076.411,1.132,1.132,0,0,1-1.133,1.133A.138.138,0,0,1,362.655,75.822Zm-2.1-3.372a1.129,1.129,0,0,1,.527.13l.07.035-.013-.076a1.133,1.133,0,0,1,.325-1l.056-.055-.076-.012a1.13,1.13,0,0,1-.853-.62l-.035-.071-.035.071a1.131,1.131,0,0,1-.853.62l-.076.012.057.055a1.133,1.133,0,0,1,.325,1l-.013.076.07-.035A1.114,1.114,0,0,1,360.552,72.45Zm0,0" transform="translate(-305.565 -57.625)"/>
    <path id="Path_66" data-name="Path 66" d="M208.96,162.314H177.223a1.133,1.133,0,0,1,0-2.267H208.96a1.133,1.133,0,1,1,0,2.267Zm0,0" transform="translate(-151.128 -137.371)"/>
    <path id="Path_67" data-name="Path 67" d="M208.96,194.314H177.223a1.133,1.133,0,0,1,0-2.267H208.96a1.133,1.133,0,1,1,0,2.267Zm0,0" transform="translate(-151.128 -164.838)"/>
    <path id="Path_68" data-name="Path 68" d="M243.358,226.314H225.223a1.133,1.133,0,0,1,0-2.267h18.135a1.133,1.133,0,1,1,0,2.267Zm0,0" transform="translate(-192.327 -192.304)"/>
    <path id="Path_69" data-name="Path 69" d="M183.839,450.216a12.416,12.416,0,0,1-11.888-8.709,1.133,1.133,0,1,1,2.16-.682,10.162,10.162,0,0,0,9.728,7.123,1.134,1.134,0,0,1,0,2.269Zm0,0" transform="translate(-147.529 -377.687)"/>
    <path id="Path_70" data-name="Path 70" d="M172.958,346.152a1.145,1.145,0,0,1-.339-.052,1.133,1.133,0,0,1-.743-1.42,12.412,12.412,0,0,1,11.9-8.742,1.133,1.133,0,0,1,0,2.267,10.156,10.156,0,0,0-9.737,7.153A1.134,1.134,0,0,1,172.958,346.152Zm0,0" transform="translate(-147.467 -288.342)"/>
  </g>
</svg>
