<svg xmlns="http://www.w3.org/2000/svg" width="78.226" height="89.837" viewBox="0 0 78.226 89.837">
  <g id="pray" transform="translate(-33.089)">
    <g id="Group_41" data-name="Group 41" transform="translate(33.089)">
      <path id="Path_71" data-name="Path 71" d="M67.55,203.614a1.754,1.754,0,0,0,2.124,1.284l8.483-2.091a1.755,1.755,0,0,0,1.335-1.681c.223-17.2.316-17.424,5.185-29.069l4.7-10.538a1.755,1.755,0,1,0-3.2-1.438L81.439,170.7c-4.9,11.714-5.211,12.463-5.438,29.021l-7.167,1.766A1.755,1.755,0,0,0,67.55,203.614Z" transform="translate(-61.461 -131.138)"/>
      <path id="Path_72" data-name="Path 72" d="M365.309,479.251a58.036,58.036,0,0,1-12.618-2.632,1.755,1.755,0,1,0-1.112,3.329,61.61,61.61,0,0,0,13.392,2.8q.086.008.171.008a1.755,1.755,0,0,0,.167-3.5Z" transform="translate(-294.708 -392.915)"/>
      <path id="Path_73" data-name="Path 73" d="M122.993,132.537l8.483,2.091a1.755,1.755,0,1,0,.84-3.407l-7.167-1.766c-.227-16.557-.541-17.307-5.438-29.021L109.219,77.006a5.464,5.464,0,0,0-8.643-1.755,5.464,5.464,0,0,0-8.643,1.755,1.755,1.755,0,1,0,3.2,1.438,1.886,1.886,0,0,1,2.521-.955A1.59,1.59,0,0,1,98.49,79.8L93.546,93.083a5.542,5.542,0,0,0-4.266,4.23c-.827,3.24-1.574,6.361-2.3,9.379-.365,1.528-.731,3.055-1.108,4.6a1.755,1.755,0,0,0,3.41.83c.378-1.552.745-3.084,1.111-4.616.719-3.005,1.463-6.113,2.284-9.328.231-.9.9-1.761,1.862-1.657l.052.006A1.656,1.656,0,0,1,96,98.374c-.113.905-.3,2.671-.49,4.378s-.374,3.446-.484,4.323c-.6,4.818-.423,5.4,1.153,8.474.3.585.639,1.247,1.049,2.1,1.823,3.724,1.516,8.829-.965,16.066-2.647,7.719-15.944,12.4-27.18,13.487a1.755,1.755,0,0,0,.167,3.5c.056,0,.113,0,.171-.008,12.731-1.229,26.995-6.6,30.162-15.842q.564-1.646.989-3.173.427,1.529.989,3.173a14.949,14.949,0,0,0,3.84,5.805,1.755,1.755,0,1,0,2.449-2.514,11.5,11.5,0,0,1-2.968-4.429c-2.481-7.237-2.788-12.342-.959-16.077.405-.843.744-1.506,1.044-2.09,1.575-3.077,1.753-3.656,1.152-8.474-.11-.879-.3-2.634-.485-4.331s-.377-3.467-.489-4.371a1.665,1.665,0,0,1,1.411-1.843l.051-.006c.967-.106,1.632.753,1.863,1.657.82,3.21,1.563,6.314,2.281,9.316.368,1.536.735,3.071,1.114,4.628a1.755,1.755,0,0,0,3.41-.83c-.378-1.552-.744-3.083-1.111-4.614-.721-3.014-1.467-6.131-2.293-9.367a5.541,5.541,0,0,0-4.266-4.231l-4.944-13.288a1.59,1.59,0,0,1,.834-2.306,1.886,1.886,0,0,1,2.521.955l10.455,23.342c4.869,11.645,4.962,11.867,5.185,29.069A1.754,1.754,0,0,0,122.993,132.537ZM104.112,93.754a5.17,5.17,0,0,0-2.446,5.054c.109.876.3,2.625.483,4.316.186,1.711.378,3.48.491,4.386.49,3.932.49,3.932-.794,6.441-.293.573-.658,1.286-1.077,2.158-.066.135-.13.272-.192.41-.06-.134-.122-.267-.187-.4-.424-.882-.789-1.6-1.083-2.169-1.284-2.509-1.284-2.509-.794-6.441.113-.905.3-2.671.49-4.378s.374-3.446.484-4.323a5.171,5.171,0,0,0-2.446-5.054l3.536-9.5Z" transform="translate(-61.463 -60.868)"/>
      <path id="Path_74" data-name="Path 74" d="M247.756,9.24a1.755,1.755,0,0,0,1.755-1.755V1.755a1.755,1.755,0,1,0-3.509,0V7.486A1.755,1.755,0,0,0,247.756,9.24Z" transform="translate(-208.643)"/>
      <path id="Path_75" data-name="Path 75" d="M142.644,36.119a1.755,1.755,0,0,0,3.039-1.755L142.818,29.4a1.755,1.755,0,0,0-3.039,1.755Z" transform="translate(-120.865 -23.519)"/>
      <path id="Path_76" data-name="Path 76" d="M62.49,109.73l4.963,2.865a1.755,1.755,0,0,0,1.755-3.039l-4.963-2.865a1.755,1.755,0,1,0-1.755,3.039Z" transform="translate(-56.607 -87.777)"/>
      <path id="Path_77" data-name="Path 77" d="M42.329,214.668a1.755,1.755,0,0,0-1.755-1.755H34.844a1.755,1.755,0,0,0,0,3.509h5.731A1.755,1.755,0,0,0,42.329,214.668Z" transform="translate(-33.089 -175.555)"/>
      <path id="Path_78" data-name="Path 78" d="M337,36.762a1.754,1.754,0,0,0,2.4-.642l2.865-4.963a1.755,1.755,0,0,0-3.039-1.755l-2.865,4.963A1.754,1.754,0,0,0,337,36.762Z" transform="translate(-282.954 -23.519)"/>
      <path id="Path_79" data-name="Path 79" d="M403.858,112.831a1.747,1.747,0,0,0,.876-.235l4.963-2.865a1.755,1.755,0,0,0-1.755-3.039l-4.963,2.865a1.755,1.755,0,0,0,.879,3.274Z" transform="translate(-337.353 -87.777)"/>
      <path id="Path_80" data-name="Path 80" d="M433.738,212.913h-5.731a1.755,1.755,0,1,0,0,3.509h5.731a1.755,1.755,0,1,0,0-3.509Z" transform="translate(-357.267 -175.555)"/>
      <path id="Path_81" data-name="Path 81" d="M190.437,125.884a1.753,1.753,0,0,0,2.354-.785h0a1.755,1.755,0,1,0-2.355.786Z" transform="translate(-162.028 -101.055)"/>
      <path id="Path_82" data-name="Path 82" d="M315.766,460.977h0a1.755,1.755,0,1,0,.923,2.3A1.754,1.754,0,0,0,315.765,460.977Z" transform="translate(-264.149 -379.975)"/>
    </g>
  </g>
</svg>
