<svg id="Profile" xmlns="http://www.w3.org/2000/svg" width="141" height="140.777" viewBox="0 0 141 140.777">
  <g id="user">
    <ellipse id="Ellipse_1" data-name="Ellipse 1" cx="35.194" cy="42.233" rx="35.194" ry="42.233" transform="translate(35.306)"/>
    <path id="Path_4" data-name="Path 4" d="M141.465,45.3c-6.335-12.67-18.3-23.228-33.786-29.563-4.223-1.408-9.151-1.408-12.67.7a41.872,41.872,0,0,1-22.524,6.335A41.872,41.872,0,0,1,49.96,16.446c-3.519-1.408-8.447-2.112-12.67,0C21.8,22.781,9.838,33.339,3.5,46.009c-4.927,9.15,2.816,19.709,13.374,19.709H128.091C138.649,65.718,146.392,55.159,141.465,45.3Z" transform="translate(-1.984 75.059)"/>
  </g>
</svg>
