<svg xmlns="http://www.w3.org/2000/svg" width="101.503" height="61.891" viewBox="0 0 101.503 61.891">
  <g id="smoke" transform="translate(0 -99.905)">
    <g id="Group_43" data-name="Group 43" transform="translate(0 138.052)">
      <g id="Group_42" data-name="Group 42">
        <path id="Path_83" data-name="Path 83" d="M94.517,292.324H11.872a11.872,11.872,0,1,0,0,23.744H94.517a6.994,6.994,0,0,0,6.986-6.986V299.31A6.994,6.994,0,0,0,94.517,292.324Zm-14.065,17.8H11.872a5.924,5.924,0,1,1,0-11.847h68.58V310.12Zm15.1-1.037a1.038,1.038,0,0,1-1.037,1.037H86.4V298.272h8.116a1.038,1.038,0,0,1,1.037,1.037Z" transform="translate(0 -292.324)"/>
      </g>
    </g>
    <g id="Group_45" data-name="Group 45" transform="translate(35.187 99.905)">
      <g id="Group_44" data-name="Group 44">
        <path id="Path_84" data-name="Path 84" d="M221.39,111.806l-29.03,0a8.935,8.935,0,0,1-8.923-8.925,2.974,2.974,0,1,0-5.949,0,14.891,14.891,0,0,0,14.871,14.874l29.03,0a8.935,8.935,0,0,1,8.923,8.925v4.561a2.974,2.974,0,1,0,5.949,0v-4.561A14.891,14.891,0,0,0,221.39,111.806Z" transform="translate(-177.488 -99.905)"/>
      </g>
    </g>
  </g>
</svg>
