<svg xmlns="http://www.w3.org/2000/svg" width="115.531" height="93.033" viewBox="0 0 115.531 93.033">
  <g id="Virgo" transform="translate(0 0)">
    <path id="iconfinder_Artboard_6_1737215" d="M94.631,34.218A20.159,20.159,0,0,0,62.743,23.149a20.08,20.08,0,0,0-24.605,0A20.185,20.185,0,0,0,5.63,39.165a7.916,7.916,0,1,0,15.832,0,4.387,4.387,0,1,1,8.773,0v34.3a7.916,7.916,0,1,0,15.832,0v-34.3a4.387,4.387,0,1,1,8.773,0v34.3a7.916,7.916,0,1,0,15.832,0v-34.3a4.387,4.387,0,1,1,8.773,0v46.7L66.807,98.455a7.916,7.916,0,1,0,11.188,11.2l5.515-5.515A19.869,19.869,0,0,0,119.131,92.07a7.916,7.916,0,1,0-15.832,0,4.063,4.063,0,0,1-8.1.317l19.183-19.064a23.048,23.048,0,0,0-19.79-39.1Zm8.549,27.9-7.916,7.916V50.314a7.243,7.243,0,0,1,7.916,11.808Z" transform="translate(-5.63 -18.939)"/>
  </g>
</svg>
