<svg xmlns="http://www.w3.org/2000/svg" width="109.603" height="89.837" viewBox="0 0 109.603 89.837">
  <path id="iconfinder_dumbbell_1118213" d="M100,43H92.914A4.813,4.813,0,0,0,88.5,39h-3c-.171,0-.5-.634-.5-.615V31.834A4.8,4.8,0,0,0,80.5,27h-7A4.8,4.8,0,0,0,69,31.834V43H31V31.834A4.8,4.8,0,0,0,26.5,27h-7A4.8,4.8,0,0,0,15,31.834v6.613c0-.019-.331.553-.5.553h-3a4.879,4.879,0,0,0-4.409,4H0V57H7.008a4.177,4.177,0,0,0,4.49,4h3c.171,0,.5.365.5.346v7.488A4.23,4.23,0,0,0,19.5,73h7A4.234,4.234,0,0,0,31,68.834V57H69V68.834A4.23,4.23,0,0,0,73.5,73h7A4.234,4.234,0,0,0,85,68.834V61.283c0,.019.327-.283.5-.283h3a4.221,4.221,0,0,0,4.483-4H100ZM4,47H7v6H4Zm11,9.5a.5.5,0,0,1-.5.5h-3a.5.5,0,0,1-.5-.5v-13a.5.5,0,0,1,.5-.5h3a.5.5,0,0,1,.5.5ZM27,68.834c0,.271-.231.166-.5.166h-7c-.271,0-.5.105-.5-.166v-37c0-.271.227-.834.5-.834h7c.271,0,.5.563.5.834ZM31,53V47H69v6ZM81,68.834c0,.271-.231.166-.5.166h-7c-.271,0-.5.105-.5-.166v-37c0-.271.227-.834.5-.834h7c.271,0,.5.563.5.834v37ZM89,56.5a.5.5,0,0,1-.5.5h-3a.5.5,0,0,1-.5-.5v-13a.5.5,0,0,1,.5-.5h3a.5.5,0,0,1,.5.5ZM96,53H93V47h3Z" transform="translate(-13.5 26.617) rotate(-30)" fill="#231f20"/>
</svg>
