<svg xmlns="http://www.w3.org/2000/svg" width="90.981" height="90.983" viewBox="0 0 90.981 90.983">
  <g id="Outline" transform="translate(-16 -15.995)">
    <path id="Path_17" data-name="Path 17" d="M93.657,29.32a45.507,45.507,0,0,0-56.075-6.542l-.152.089,7.608,13.154a30.569,30.569,0,0,0-9.012,9.013L25.5,38.958A42.883,42.883,0,0,1,36.835,26.917L35.072,24.45a45.492,45.492,0,1,0,58.585,4.87ZM91.78,63h12.139a42.174,42.174,0,0,1-4.907,18.4L88.476,75.316A30.11,30.11,0,0,0,91.78,63Zm0-3.033a30.11,30.11,0,0,0-3.3-12.313l10.535-6.083a42.174,42.174,0,0,1,4.907,18.4ZM97.49,38.951,86.955,45.034a30.569,30.569,0,0,0-9.012-9.012l6.083-10.535A43.005,43.005,0,0,1,97.49,38.951ZM63.007,19.058a42.175,42.175,0,0,1,18.4,4.907L75.32,34.5a30.111,30.111,0,0,0-12.313-3.3ZM41.585,23.976a42.366,42.366,0,0,1,18.389-4.92V31.2a30.111,30.111,0,0,0-12.313,3.3ZM61.491,34.192A27.294,27.294,0,1,1,34.2,61.486,27.326,27.326,0,0,1,61.491,34.192ZM59.974,91.776v12.139a42.175,42.175,0,0,1-18.4-4.907l6.082-10.535a30.111,30.111,0,0,0,12.313,3.3Zm3.033,0a30.111,30.111,0,0,0,12.313-3.3L81.4,99.008a42.175,42.175,0,0,1-18.4,4.907ZM31.2,63a30.11,30.11,0,0,0,3.3,12.313L23.969,81.4A42.173,42.173,0,0,1,19.062,63Zm-7.31-21.257c.029-.055.06-.109.089-.164L34.5,47.657A30.11,30.11,0,0,0,31.2,59.97H19.063a42.529,42.529,0,0,1,4.828-18.225Zm1.6,42.276,10.535-6.083a30.569,30.569,0,0,0,9.012,9.012L38.955,97.486A43.005,43.005,0,0,1,25.491,84.022Zm66.022,7.487a42.808,42.808,0,0,1-7.487,5.978L77.943,86.951a30.569,30.569,0,0,0,9.012-9.012L97.49,84.022a42.8,42.8,0,0,1-5.978,7.487Z" transform="translate(0)"/>
    <path id="Path_18" data-name="Path 18" d="M128.041,152.614a1.516,1.516,0,0,0,1.476,1.168h2.458a5.369,5.369,0,0,1,1.557.23,5.432,5.432,0,0,1,1.433.676,8.389,8.389,0,0,0,4.106,1.4l-8.4,3.482,1.161,2.8,9.149-3.791-.106.212a2.188,2.188,0,0,1-1.27,1.1,5.246,5.246,0,0,0-3.3,3.3l-1.558,4.674a1.516,1.516,0,0,0,2.511,1.552l1.738-1.738a5.381,5.381,0,0,1,1.269-.942,5.318,5.318,0,0,1,1.484-.532,8.394,8.394,0,0,0,3.9-1.921l-3.485,8.412,2.8,1.161,3.789-9.147.074.221a2.205,2.205,0,0,1-.118,1.673,5.243,5.243,0,0,0,0,4.674l2.2,4.407a1.516,1.516,0,0,0,2.872-.678v-2.458a5.373,5.373,0,0,1,.23-1.557,5.439,5.439,0,0,1,.676-1.432,8.383,8.383,0,0,0,1.4-4.11l3.483,8.408,2.8-1.161-3.791-9.15.212.106a2.188,2.188,0,0,1,1.1,1.27,5.245,5.245,0,0,0,3.3,3.3l4.674,1.558a1.516,1.516,0,0,0,1.552-2.511l-1.738-1.738a5.378,5.378,0,0,1-.942-1.27,5.321,5.321,0,0,1-.532-1.484,8.394,8.394,0,0,0-1.92-3.9l8.411,3.484,1.161-2.8-9.147-3.789.221-.074a2.23,2.23,0,0,1,1.673.118,5.244,5.244,0,0,0,4.674,0l4.407-2.2a1.516,1.516,0,0,0-.677-2.872h-2.458a5.369,5.369,0,0,1-1.557-.23,5.432,5.432,0,0,1-1.433-.676,8.39,8.39,0,0,0-4.109-1.4l8.407-3.482-1.161-2.8-9.149,3.791.106-.212a2.187,2.187,0,0,1,1.27-1.1,5.246,5.246,0,0,0,3.3-3.3l1.558-4.674a1.516,1.516,0,0,0-2.511-1.552l-1.738,1.738a5.381,5.381,0,0,1-1.269.942,5.319,5.319,0,0,1-1.484.532,8.394,8.394,0,0,0-3.9,1.921l3.485-8.412-2.8-1.161-3.789,9.147-.074-.221a2.205,2.205,0,0,1,.118-1.673,5.243,5.243,0,0,0,0-4.674l-2.2-4.407a1.516,1.516,0,0,0-2.872.678v2.458a5.372,5.372,0,0,1-.23,1.557,5.439,5.439,0,0,1-.676,1.432,8.383,8.383,0,0,0-1.4,4.11l-3.483-8.408-2.8,1.161,3.791,9.15-.212-.106a2.188,2.188,0,0,1-1.1-1.27,5.245,5.245,0,0,0-3.3-3.3l-4.674-1.558a1.516,1.516,0,0,0-1.552,2.511l1.738,1.738a5.378,5.378,0,0,1,.942,1.27,5.322,5.322,0,0,1,.532,1.484,8.394,8.394,0,0,0,1.92,3.9l-8.411-3.484-1.161,2.8,9.147,3.789-.221.074a2.231,2.231,0,0,1-1.673-.118,5.243,5.243,0,0,0-4.674,0l-4.407,2.2A1.516,1.516,0,0,0,128.041,152.614Zm33.319-.348a9.1,9.1,0,1,1-9.1-9.1A9.1,9.1,0,0,1,161.36,152.266Zm-20.21,10.969a8.341,8.341,0,0,0-1.834.59,2.2,2.2,0,0,1,1.245-1.057,5.19,5.19,0,0,0,2.817-2.254,11.912,11.912,0,0,0,.88.855A5.354,5.354,0,0,1,141.15,163.235Zm11.011,4.646a8.434,8.434,0,0,0-.878,1.714,2.2,2.2,0,0,1,.133-1.63,5.237,5.237,0,0,0,.4-3.58c.148.005.3.011.445.011.261,0,.518-.011.775-.027A5.431,5.431,0,0,1,152.16,167.881Zm10.6-3.915a5.188,5.188,0,0,0-2.254-2.816,12.246,12.246,0,0,0,.856-.88,5.354,5.354,0,0,1,1.865,3.109,8.34,8.34,0,0,0,.59,1.834,2.2,2.2,0,0,1-1.057-1.246Zm6.827-10.721a2.2,2.2,0,0,1-1.63-.133,5.3,5.3,0,0,0-3.58-.4c.005-.149.011-.3.011-.447,0-.261-.011-.518-.027-.775a5.431,5.431,0,0,1,3.512.876A8.43,8.43,0,0,0,169.591,153.245ZM163.374,141.3a8.342,8.342,0,0,0,1.834-.59,2.2,2.2,0,0,1-1.245,1.057,5.19,5.19,0,0,0-2.817,2.254,12.218,12.218,0,0,0-.88-.855A5.354,5.354,0,0,1,163.374,141.3Zm-11.011-4.646a8.434,8.434,0,0,0,.878-1.714,2.2,2.2,0,0,1-.133,1.63,5.237,5.237,0,0,0-.4,3.58c-.148-.005-.3-.011-.445-.011-.261,0-.518.011-.775.027a5.431,5.431,0,0,1,.876-3.512Zm-10.6,3.915a5.188,5.188,0,0,0,2.254,2.816,12.246,12.246,0,0,0-.856.88,5.354,5.354,0,0,1-1.865-3.109,8.34,8.34,0,0,0-.59-1.834A2.2,2.2,0,0,1,141.759,140.565Zm-5.2,10.854a5.3,5.3,0,0,0,3.58.4c-.006.149-.011.3-.011.447,0,.26.011.518.027.775a5.432,5.432,0,0,1-3.512-.876,8.428,8.428,0,0,0-1.714-.878A2.2,2.2,0,0,1,136.562,151.419Z" transform="translate(-90.771 -90.779)"/>
    <rect id="Rectangle_41" data-name="Rectangle 41" width="7" height="3" transform="translate(57.981 64.995)"/>
    <path id="Path_19" data-name="Path 19" d="M224.13,234.331h3.033v-4.549a1.516,1.516,0,0,0-.444-1.072,4.486,4.486,0,0,0-5.185-.842l-1.115.557,1.356,2.712,1.115-.557a1.457,1.457,0,0,1,1.24-.031Z" transform="translate(-165.673 -171.328)"/>
    <rect id="Rectangle_42" data-name="Rectangle 42" width="3" height="3" transform="translate(64.981 56.995)"/>
    <path id="Path_20" data-name="Path 20" d="M295.474,54.773a1.516,1.516,0,0,0-.994-1.079l-2.849-.95a1.516,1.516,0,0,0-1.988,1.6l.365,3.507a1.516,1.516,0,0,0,2.6.9l2.483-2.557A1.516,1.516,0,0,0,295.474,54.773Z" transform="translate(-221.769 -29.72)"/>
    <circle id="Ellipse_18" data-name="Ellipse 18" cx="3.033" cy="3.033" r="3.033" transform="translate(83.794 32.865)"/>
    <rect id="Rectangle_43" data-name="Rectangle 43" width="6" height="6" rx="3" transform="translate(92.981 48.995)"/>
    <ellipse id="Ellipse_19" data-name="Ellipse 19" cx="3.449" cy="3.033" rx="3.449" ry="3.033" transform="translate(93.392 67.836)"/>
    <ellipse id="Ellipse_20" data-name="Ellipse 20" cx="3.033" cy="3.449" rx="3.033" ry="3.449" transform="translate(84.299 83.626)"/>
    <path id="Path_21" data-name="Path 21" d="M287.475,423.332A3.479,3.479,0,0,0,284,426.807v2.211a1.516,1.516,0,0,0,1.516,1.516h3.917a1.516,1.516,0,0,0,1.516-1.516v-2.211a3.479,3.479,0,0,0-3.475-3.475Zm.442,4.17h-.885v-.695a.442.442,0,1,1,.884,0Z" transform="translate(-217.202 -330.129)"/>
    <path id="Path_22" data-name="Path 22" d="M186.835,427.3h7.582v-3.033h-1a2.97,2.97,0,1,0-5.577,0h-1Z" transform="translate(-138.454 -327.655)"/>
    <path id="Path_23" data-name="Path 23" d="M103.808,371.333a3.479,3.479,0,0,0-3.475,3.475v2.211a1.516,1.516,0,0,0,1.516,1.516h3.917a1.516,1.516,0,0,0,1.516-1.516v-2.211A3.479,3.479,0,0,0,103.808,371.333Zm.442,4.17h-.885v-.695a.442.442,0,1,1,.885,0Z" transform="translate(-68.348 -287.986)"/>
    <path id="Path_24" data-name="Path 24" d="M51.516,194.869h3.917a1.516,1.516,0,0,0,1.516-1.516v-2.211a3.475,3.475,0,1,0-6.95,0v2.211a1.516,1.516,0,0,0,1.516,1.516Zm1.516-3.728a.442.442,0,1,1,.885,0v.7h-.885Z" transform="translate(-27.555 -139.132)"/>
    <path id="Path_25" data-name="Path 25" d="M51.225,286.367l2.442,1.8,2.662-3.616H58.2v-3.033A1.516,1.516,0,0,0,56.679,280H53.646v3.033h.033Z" transform="translate(-28.548 -213.964)"/>
    <rect id="Rectangle_44" data-name="Rectangle 44" width="7.582" height="4.549" rx="2.275" transform="translate(31.795 33.434)"/>
    <path id="Path_26" data-name="Path 26" d="M195.277,58.7a3.2,3.2,0,0,1,.023-2.783l.031-.064a1.516,1.516,0,0,0-1.362-2.183h-3.012a1.516,1.516,0,0,0-1.351,2.2,3.236,3.236,0,0,1,.024,2.871l-.035.072A1.516,1.516,0,0,0,190.956,61h3.012a1.516,1.516,0,0,0,1.373-2.161Z" transform="translate(-140.565 -30.531)"/>
  </g>
</svg>
