<svg xmlns="http://www.w3.org/2000/svg" width="88.926" height="93.025" viewBox="0 0 88.926 93.025">
  <g id="Capricorn" transform="translate(0 0)">
    <path id="iconfinder_Artboard_11_1737211" d="M87.273,66.664a19.79,19.79,0,0,0-10-.5V32.744a20.186,20.186,0,0,0-32.534-16,20.186,20.186,0,0,0-32.508,16,7.916,7.916,0,1,0,15.832,0,4.387,4.387,0,0,1,8.773,0v34.3a7.916,7.916,0,1,0,15.832,0v-34.3a4.387,4.387,0,1,1,8.773,0V75.4L43.128,88.591a7.916,7.916,0,1,0,9.235,12.85l10.713-7.718a19.9,19.9,0,1,0,24.17-27.046ZM85.148,86.876a4.063,4.063,0,0,1-7.916-.686V84.976a3.956,3.956,0,0,1,.119-.554,4.077,4.077,0,0,1,7.771,2.454Z" transform="translate(-12.23 -12.523)"/>
  </g>
</svg>
