<svg xmlns="http://www.w3.org/2000/svg" width="76" height="81.064" viewBox="0 0 76 81.064">
  <path id="iconfinder_drink_811485" d="M76.275,7.95C71.386-2.71,56.921-.967,51.626,3.458a11.226,11.226,0,0,0-4.218,10.12s-39.515.27-42.327.337S1.4,15.86,2.4,18.34,27.878,50.707,27.92,50.915c.134.671,1.14,20.579,1,20.779s-15.136,2.681-16.006,3.15-1.674,4.29-1.339,5.43,46.549.8,47.083.469.87-3.42-.334-4.893-19.287-4.223-19.287-4.223-.8-20.377-.737-20.846S56.322,29.869,56.322,29.869s4.421,3.149,11.453,1.072,13.392-12.334,8.5-22.992ZM36.006,49.693c-.251.654-.1,23.477.251,23.729s17.682,3.319,18.082,3.972.352,1.055.2,1.055-37.573-.2-37.624-.452-.051-.754.3-.8,14.566-3.268,14.668-3.62-.352-23.729-.4-24.081S13.7,29.482,13.2,26.92a18.464,18.464,0,0,1,3.416-.706,13.259,13.259,0,0,1,2.964,0c.1.152,2.814,4.424,3.167,4.424s1.807-.806,1.555-1.107-2.561-3.72-2.561-3.72a6.785,6.785,0,0,0,3.718-.1,15.611,15.611,0,0,1,3.668-1.156c.5.051,4.522,2.061,7.937,1.659s7.182-1.457,8.187-1.256,2.512,1.558,4.822,1.761,4.17.1,4.421.351S36.258,49.036,36.008,49.69ZM56.984,23.97c-.937.536-4.619,1.676-5.892,1.14s-3.885-2.144-5.155-2.144-6.1,2.014-9.444,1.609-5.759-1.875-7.435-1.742-4.687,1.474-7.232,1.676a34.763,34.763,0,0,1-6.162-.4c-.4,0-3.818,1.676-3.952,1.406s-5.826-7.3-5.826-8.714c0-.36,50.564-.266,51.569-.2s3.35.737,3.149,1.877-2.678,4.961-3.616,5.5Zm17.5-8.362c-.452,4.575-1.659,10.356-6.329,11.764s-9.192,1.406-9.343-.1,6.077-7.188,5.626-9.753S62.628,14.2,60.219,14s-8.59-.152-9.145-.5c-.389-.248-.3-3.42,0-4.978S56,2.237,63.583,2.991a12.32,12.32,0,0,1,10.9,12.618ZM11.493,19.177a3.133,3.133,0,0,0-1.706.2A46.968,46.968,0,0,0,12.45,23.8c.152.251,1.355-.3,1.558-.9s-2.25-3.616-2.513-3.721ZM23.8,33.655a1.317,1.317,0,0,0-1.1,1.761,1.406,1.406,0,0,0,2.51-.051c.3-1.055-.3-1.609-1.406-1.71Zm6.331,1.761a1.319,1.319,0,0,0-1.106,1.761,1.407,1.407,0,0,0,2.512-.051c.3-1.056-.3-1.609-1.406-1.71Zm1.256-6.637c.3-1.055-.3-1.609-1.406-1.707a1.318,1.318,0,0,0-1.1,1.761,1.407,1.407,0,0,0,2.51-.051ZM39.373,32.8a1.319,1.319,0,0,0-1.106,1.761,1.407,1.407,0,0,0,2.512-.051c.3-1.056-.3-1.609-1.406-1.71Zm7.536-4.122A1.319,1.319,0,0,0,45.8,30.44a1.407,1.407,0,0,0,2.512-.051c.3-1.056-.3-1.609-1.406-1.71ZM35.054,40.644a1.318,1.318,0,0,0-1.1,1.761,1.407,1.407,0,0,0,2.512-.051c.3-1.056-.3-1.609-1.406-1.71ZM54.993,8.872a40.7,40.7,0,0,0,2.863,3.871,3.654,3.654,0,0,0,1.3-.7,49.789,49.789,0,0,0-3.012-4.072c-.3.1-1.254.6-1.155.9Zm7.083-2.918a50.472,50.472,0,0,0,.051,5.531c.152.3.9.3,1.254.2s.4-5.231.4-5.682-1.65-.336-1.707-.051Zm7.886,4.275a49.226,49.226,0,0,0-5.124,2.865c-.051.251.554.955.755,1.006a30.468,30.468,0,0,0,5.174-2.261c.253-.352-.532-1.723-.8-1.609ZM67.5,18.373a5.186,5.186,0,0,0-.654,1.358s3.818,2.162,4.119,2.162.7-1.71.7-1.71-3.819-2.16-4.167-1.811Zm-3.215,4.575c-.051.2.654,3.319.654,3.319a9.2,9.2,0,0,0,1.91-.4,12.8,12.8,0,0,0-1.155-3.017c-.253-.2-1.355-.1-1.406.1Z" transform="translate(-2 0.001)"/>
</svg>
