<svg xmlns="http://www.w3.org/2000/svg" width="79.565" height="79.629" viewBox="0 0 79.565 79.629">
  <g id="look-for" transform="translate(-0.204)">
    <path id="Path_35" data-name="Path 35" d="M49.382,0A30.38,30.38,0,0,0,22.351,44.259L8.93,57.679h0L2.937,63.673A9.347,9.347,0,0,0,16.155,76.891L35.588,57.458A30.385,30.385,0,1,0,49.382,0ZM20.5,65.95l-6.62-6.62,3.247-3.247,6.62,6.62Zm-7.642,7.642a4.681,4.681,0,0,1-6.62-6.62l4.343-4.343,6.62,6.62ZM27.044,59.4l-6.62-6.62,4.452-4.452a30.644,30.644,0,0,0,6.629,6.611Zm22.338-3.3A25.721,25.721,0,1,1,75.1,30.387,25.75,25.75,0,0,1,49.382,56.108Z" transform="translate(0)"/>
    <path id="Path_36" data-name="Path 36" d="M204.3,62.486A20.638,20.638,0,0,0,190.55,98.528,2.336,2.336,0,0,0,191.1,99a20.644,20.644,0,1,0,13.2-36.515ZM194.829,96a9.667,9.667,0,0,1,18.934,0,15.948,15.948,0,0,1-18.934,0Zm5.721-16.121a3.745,3.745,0,1,1,3.745,3.745A3.75,3.75,0,0,1,200.55,79.882Zm16.883,12.343a14.344,14.344,0,0,0-6.622-7.031,8.411,8.411,0,1,0-13.033,0,14.367,14.367,0,0,0-6.621,7.032,15.983,15.983,0,1,1,26.276,0Z" transform="translate(-154.913 -52.768)"/>
  </g>
</svg>
