<svg xmlns="http://www.w3.org/2000/svg" width="91.648" height="84.989" viewBox="0 0 91.648 84.989">
  <g id="Group_46" data-name="Group 46" transform="translate(1341 -4154)">
    <g id="paw" transform="translate(-1341 4154)">
      <g id="Group_32" data-name="Group 32" transform="translate(7.821 24.393)">
        <g id="Group_31" data-name="Group 31">
          <path id="Path_30" data-name="Path 30" d="M97.839,252C89.1,252,80.9,263.775,80.9,270.876c0,3.528,4.039,6.292,9.2,6.292a12.786,12.786,0,0,0,4.387-.807,9.058,9.058,0,0,1,6.714,0,12.786,12.786,0,0,0,4.387.807c5.157,0,9.2-2.764,9.2-6.292C114.778,263.775,106.573,252,97.839,252Zm7.744,22.263a9.917,9.917,0,0,1-3.478-.661,11.9,11.9,0,0,0-8.532,0,9.918,9.918,0,0,1-3.478.661c-3.708,0-6.292-1.785-6.292-3.388,0-2.865,1.771-6.878,4.511-10.224,2.992-3.653,6.464-5.748,9.525-5.748s6.532,2.1,9.524,5.748c2.74,3.346,4.511,7.359,4.511,10.224C111.874,272.478,109.29,274.263,105.582,274.263Z" transform="translate(-80.899 -252)"/>
        </g>
      </g>
      <g id="Group_34" data-name="Group 34" transform="translate(8.789)">
        <g id="Group_33" data-name="Group 33">
          <path id="Path_31" data-name="Path 31" d="M98.159,0C94.088,0,90.9,4.89,90.9,11.132s3.189,11.132,7.26,11.132,7.26-4.89,7.26-11.132S102.23,0,98.159,0Zm0,19.36c-2.06,0-4.356-3.379-4.356-8.228S96.1,2.9,98.159,2.9s4.356,3.379,4.356,8.228S100.219,19.36,98.159,19.36Z" transform="translate(-90.899)"/>
        </g>
      </g>
      <g id="Group_36" data-name="Group 36" transform="translate(26.213)">
        <g id="Group_35" data-name="Group 35">
          <path id="Path_32" data-name="Path 32" d="M278.159,0c-4.071,0-7.26,4.89-7.26,11.132s3.189,11.132,7.26,11.132,7.26-4.89,7.26-11.132S282.23,0,278.159,0Zm0,19.36c-2.06,0-4.356-3.379-4.356-8.228S276.1,2.9,278.159,2.9s4.356,3.379,4.356,8.228S280.219,19.36,278.159,19.36Z" transform="translate(-270.899)"/>
        </g>
      </g>
      <g id="Group_38" data-name="Group 38" transform="translate(0 17.881)">
        <g id="Group_37" data-name="Group 37">
          <path id="Path_33" data-name="Path 33" d="M10.58,188.935c-2.169-3.828-5.889-5.064-8.24-3.625-2.463,1.507-3.045,5.386-.981,8.949,2.288,3.949,6.112,5.015,8.241,3.625C12.154,196.217,12.617,192.53,10.58,188.935Zm-2.433,6.434c-1.178.768-3.1-.71-4.274-2.562-1.224-1.927-1.162-4.278-.082-4.982.645-.42,2.86-.037,4.274,2.562C9.213,192.5,9.262,194.643,8.148,195.369Z" transform="translate(-0.102 -184.728)"/>
        </g>
      </g>
      <g id="Group_40" data-name="Group 40" transform="translate(37.788 17.881)">
        <g id="Group_39" data-name="Group 39">
          <path id="Path_34" data-name="Path 34" d="M400,185.309c-2.352-1.439-6.072-.2-8.241,3.625-2.037,3.6-1.574,7.282.981,8.949,2.129,1.39,5.952.324,8.24-3.625C403.044,190.695,402.462,186.816,400,185.309Zm-1.534,7.5c-1.177,1.853-3.1,3.33-4.274,2.562-1.114-.726-1.065-2.871.082-4.982,1.413-2.6,3.629-2.983,4.274-2.562C399.628,188.528,399.689,190.879,398.465,192.806Z" transform="translate(-390.485 -184.727)"/>
        </g>
      </g>
    </g>
    <g id="paw-2" data-name="paw" transform="translate(-1298.893 4189.428)">
      <g id="Group_32-2" data-name="Group 32" transform="translate(7.821 24.393)">
        <g id="Group_31-2" data-name="Group 31">
          <path id="Path_30-2" data-name="Path 30" d="M97.839,252C89.1,252,80.9,263.775,80.9,270.876c0,3.528,4.039,6.292,9.2,6.292a12.786,12.786,0,0,0,4.387-.807,9.058,9.058,0,0,1,6.714,0,12.786,12.786,0,0,0,4.387.807c5.157,0,9.2-2.764,9.2-6.292C114.778,263.775,106.573,252,97.839,252Zm7.744,22.263a9.917,9.917,0,0,1-3.478-.661,11.9,11.9,0,0,0-8.532,0,9.918,9.918,0,0,1-3.478.661c-3.708,0-6.292-1.785-6.292-3.388,0-2.865,1.771-6.878,4.511-10.224,2.992-3.653,6.464-5.748,9.525-5.748s6.532,2.1,9.524,5.748c2.74,3.346,4.511,7.359,4.511,10.224C111.874,272.478,109.29,274.263,105.582,274.263Z" transform="translate(-80.899 -252)"/>
        </g>
      </g>
      <g id="Group_34-2" data-name="Group 34" transform="translate(8.789)">
        <g id="Group_33-2" data-name="Group 33">
          <path id="Path_31-2" data-name="Path 31" d="M98.159,0C94.088,0,90.9,4.89,90.9,11.132s3.189,11.132,7.26,11.132,7.26-4.89,7.26-11.132S102.23,0,98.159,0Zm0,19.36c-2.06,0-4.356-3.379-4.356-8.228S96.1,2.9,98.159,2.9s4.356,3.379,4.356,8.228S100.219,19.36,98.159,19.36Z" transform="translate(-90.899)"/>
        </g>
      </g>
      <g id="Group_36-2" data-name="Group 36" transform="translate(26.213)">
        <g id="Group_35-2" data-name="Group 35">
          <path id="Path_32-2" data-name="Path 32" d="M278.159,0c-4.071,0-7.26,4.89-7.26,11.132s3.189,11.132,7.26,11.132,7.26-4.89,7.26-11.132S282.23,0,278.159,0Zm0,19.36c-2.06,0-4.356-3.379-4.356-8.228S276.1,2.9,278.159,2.9s4.356,3.379,4.356,8.228S280.219,19.36,278.159,19.36Z" transform="translate(-270.899)"/>
        </g>
      </g>
      <g id="Group_38-2" data-name="Group 38" transform="translate(0 17.881)">
        <g id="Group_37-2" data-name="Group 37">
          <path id="Path_33-2" data-name="Path 33" d="M10.58,188.935c-2.169-3.828-5.889-5.064-8.24-3.625-2.463,1.507-3.045,5.386-.981,8.949,2.288,3.949,6.112,5.015,8.241,3.625C12.154,196.217,12.617,192.53,10.58,188.935Zm-2.433,6.434c-1.178.768-3.1-.71-4.274-2.562-1.224-1.927-1.162-4.278-.082-4.982.645-.42,2.86-.037,4.274,2.562C9.213,192.5,9.262,194.643,8.148,195.369Z" transform="translate(-0.102 -184.728)"/>
        </g>
      </g>
      <g id="Group_40-2" data-name="Group 40" transform="translate(37.788 17.881)">
        <g id="Group_39-2" data-name="Group 39">
          <path id="Path_34-2" data-name="Path 34" d="M400,185.309c-2.352-1.439-6.072-.2-8.241,3.625-2.037,3.6-1.574,7.282.981,8.949,2.129,1.39,5.952.324,8.24-3.625C403.044,190.695,402.462,186.816,400,185.309Zm-1.534,7.5c-1.177,1.853-3.1,3.33-4.274,2.562-1.114-.726-1.065-2.871.082-4.982,1.413-2.6,3.629-2.983,4.274-2.562C399.628,188.528,399.689,190.879,398.465,192.806Z" transform="translate(-390.485 -184.727)"/>
        </g>
      </g>
    </g>
  </g>
</svg>
