<svg xmlns="http://www.w3.org/2000/svg" width="117.374" height="89.759" viewBox="0 0 117.374 89.759">
  <g id="Scorpio" transform="translate(0 0)">
    <path id="iconfinder_Artboard_8_1737214" d="M112.107,64.183a7.916,7.916,0,0,0-11.2,0L93.637,71.44A7.916,7.916,0,0,0,98.5,84.9a4.538,4.538,0,0,1-9.024-.594V34.525A19.447,19.447,0,0,0,58.424,18.931a19.341,19.341,0,0,0-23.141,0A19.447,19.447,0,0,0,4.24,34.525a7.916,7.916,0,1,0,15.832,0,3.655,3.655,0,1,1,7.309,0V66.809a7.916,7.916,0,1,0,15.832,0V34.525a3.654,3.654,0,1,1,7.309,0V66.809a7.916,7.916,0,1,0,15.832,0V34.525a3.654,3.654,0,1,1,7.309,0V84.29a8.021,8.021,0,0,0,0,.8,20.357,20.357,0,0,0,40.7-.2,7.916,7.916,0,0,0,4.961-13.457Z" transform="translate(-4.24 -15.085)"/>
  </g>
</svg>
