<svg id="Taurus" xmlns="http://www.w3.org/2000/svg" width="65.097" height="89.771" viewBox="0 0 65.097 89.771">
  <path id="iconfinder_Artboard_2_1737208" d="M25.16,74.483A32.547,32.547,0,1,0,78.935,49.877,32.468,32.468,0,0,0,90.242,25.246a7.916,7.916,0,1,0-15.832,0,16.716,16.716,0,0,1-33.418,0,7.916,7.916,0,1,0-15.832,0A32.472,32.472,0,0,0,36.472,49.882a32.468,32.468,0,0,0-11.312,24.6ZM57.707,57.793A16.716,16.716,0,1,1,40.992,74.483,16.716,16.716,0,0,1,57.707,57.793Z" transform="translate(-25.16 -17.33)"/>
</svg>
